HIERARCHY
ROOT newVegas:Hips
{
	OFFSET 0.000000 96.479958 0.000000
	CHANNELS 6 Xposition Yposition Zposition Xrotation Yrotation Zrotation
	JOINT newVegas:Pelvis
	{
		OFFSET 0.000000 0.000000 0.000000
		CHANNELS 3 Xrotation Yrotation Zrotation
		JOINT newVegas:LeftUpLeg
		{
			OFFSET 18.735201 -5.666702 -4.541200
			CHANNELS 3 Xrotation Yrotation Zrotation
			JOINT newVegas:LeftLeg
			{
				OFFSET -0.021200 -31.938179 0.493100
				CHANNELS 3 Xrotation Yrotation Zrotation
				JOINT newVegas:LeftFoot
				{
					OFFSET 0.021200 -31.938179 -4.336299
					CHANNELS 3 Xrotation Yrotation Zrotation
					JOINT newVegas:LeftToeBase
					{
						OFFSET 0.943001 -26.722000 15.023500
						CHANNELS 3 Xrotation Yrotation Zrotation
						End Site
						{
							OFFSET 0.000000 30.670183 0.000000
						}
					}
				}
				JOINT newVegas:Left_PantLeg
				{
					OFFSET 0.663870 -9.044666 -1.108900
					CHANNELS 3 Xrotation Yrotation Zrotation
					End Site
					{
						OFFSET 1.415995 20.635357 0.000000
					}
				}
			}
		}
		JOINT newVegas:RightUpLeg
		{
			OFFSET -18.735201 -5.666702 -4.541200
			CHANNELS 3 Xrotation Yrotation Zrotation
			JOINT newVegas:RightLeg
			{
				OFFSET 0.018946 -31.938133 0.493100
				CHANNELS 3 Xrotation Yrotation Zrotation
				JOINT newVegas:RightFoot
				{
					OFFSET -0.018946 -31.938126 -4.336299
					CHANNELS 3 Xrotation Yrotation Zrotation
					JOINT newVegas:RightToeBase
					{
						OFFSET -0.943001 -26.722004 15.023500
						CHANNELS 3 Xrotation Yrotation Zrotation
						End Site
						{
							OFFSET 0.000000 30.670187 0.000000
						}
					}
				}
				JOINT newVegas:Right_PantLeg
				{
					OFFSET -0.661674 -9.044716 -1.108900
					CHANNELS 3 Xrotation Yrotation Zrotation
					End Site
					{
						OFFSET -1.415958 20.635269 0.000000
					}
				}
			}
		}
	}
	JOINT newVegas:Spine
	{
		OFFSET 0.000000 10.199997 -0.299500
		CHANNELS 3 Xrotation Yrotation Zrotation
		JOINT newVegas:Spine1
		{
			OFFSET 0.000000 11.900002 -1.516600
			CHANNELS 3 Xrotation Yrotation Zrotation
			JOINT newVegas:Spine2
			{
				OFFSET 0.000000 13.600006 -2.842500
				CHANNELS 3 Xrotation Yrotation Zrotation
				JOINT newVegas:Neck
				{
					OFFSET 0.000000 9.624100 -2.890100
					CHANNELS 3 Xrotation Yrotation Zrotation
					JOINT newVegas:Head
					{
						OFFSET 0.000000 14.068802 -1.351900
						CHANNELS 3 Xrotation Yrotation Zrotation
						JOINT newVegas:Hair_Back
						{
							OFFSET 0.000000 3.231903 -17.524799
							CHANNELS 3 Xrotation Yrotation Zrotation
							End Site
							{
								OFFSET 0.000000 19.849884 0.000000
							}
						}
						JOINT newVegas:Hair_Front
						{
							OFFSET 0.000000 31.260406 4.573800
							CHANNELS 3 Xrotation Yrotation Zrotation
							JOINT newVegas:Hair_Front1
							{
								OFFSET 0.000000 2.284103 11.993300
								CHANNELS 3 Xrotation Yrotation Zrotation
								JOINT newVegas:Hair_Front2
								{
									OFFSET 0.000000 2.284103 11.993300
									CHANNELS 3 Xrotation Yrotation Zrotation
									End Site
									{
										OFFSET 0.000000 12.208862 0.000000
									}
								}
							}
						}
						JOINT newVegas:Jowel
						{
							OFFSET 0.000000 -7.458206 6.864100
							CHANNELS 3 Xrotation Yrotation Zrotation
							End Site
							{
								OFFSET 0.000000 19.849884 0.000000
							}
						}
					}
				}
				JOINT newVegas:LeftShoulder
				{
					OFFSET 15.263000 10.923401 -0.547700
					CHANNELS 3 Xrotation Yrotation Zrotation
					JOINT newVegas:LeftArm
					{
						OFFSET 25.438599 -2.830597 -13.032500
						CHANNELS 3 Xrotation Yrotation Zrotation
						JOINT newVegas:LeftForeArm
						{
							OFFSET 29.960503 0.000000 0.000000
							CHANNELS 3 Xrotation Yrotation Zrotation
							JOINT newVegas:LeftHand
							{
								OFFSET 27.849251 0.000000 0.000000
								CHANNELS 3 Xrotation Yrotation Zrotation
								JOINT newVegas:LeftHandThumb1
								{
									OFFSET 4.487587 -3.305161 6.305391
									CHANNELS 3 Xrotation Yrotation Zrotation
									JOINT newVegas:LeftHandThumb2
									{
										OFFSET 5.480453 -3.164139 3.164143
										CHANNELS 3 Xrotation Yrotation Zrotation
										JOINT newVegas:LeftHandThumb3
										{
											OFFSET 5.159721 -2.978973 2.978967
											CHANNELS 3 Xrotation Yrotation Zrotation
											End Site
											{
												OFFSET 2.494507 5.926697 1.738678
											}
										}
									}
								}
								JOINT newVegas:LeftHandIndex1
								{
									OFFSET 18.578728 -0.527832 5.208049
									CHANNELS 3 Xrotation Yrotation Zrotation
									JOINT newVegas:LeftHandIndex2
									{
										OFFSET 3.192009 0.000000 0.000000
										CHANNELS 3 Xrotation Yrotation Zrotation
										JOINT newVegas:LeftHandIndex3
										{
											OFFSET 3.835129 0.000000 0.000000
											CHANNELS 3 Xrotation Yrotation Zrotation
											End Site
											{
												OFFSET -0.034599 3.816971 0.371180
											}
										}
									}
								}
								JOINT newVegas:LeftHandMiddle1
								{
									OFFSET 18.476105 0.000000 0.000000
									CHANNELS 3 Xrotation Yrotation Zrotation
									JOINT newVegas:LeftHandMiddle2
									{
										OFFSET 3.324875 0.000000 0.000000
										CHANNELS 3 Xrotation Yrotation Zrotation
										JOINT newVegas:LeftHandMiddle3
										{
											OFFSET 4.596550 0.000000 0.000000
											CHANNELS 3 Xrotation Yrotation Zrotation
											End Site
											{
												OFFSET 0.057701 4.578827 0.399218
											}
										}
									}
								}
								JOINT newVegas:LeftHandRing1
								{
									OFFSET 17.732719 0.121887 -4.201567
									CHANNELS 3 Xrotation Yrotation Zrotation
									JOINT newVegas:LeftHandRing2
									{
										OFFSET 2.733170 0.000000 0.000000
										CHANNELS 3 Xrotation Yrotation Zrotation
										JOINT newVegas:LeftHandRing3
										{
											OFFSET 3.178268 0.000000 0.000000
											CHANNELS 3 Xrotation Yrotation Zrotation
											End Site
											{
												OFFSET 0.119102 3.170624 0.185394
											}
										}
									}
								}
								JOINT newVegas:LeftHandPinky1
								{
									OFFSET 15.989624 -0.606689 -7.535461
									CHANNELS 3 Xrotation Yrotation Zrotation
									JOINT newVegas:LeftHandPinky2
									{
										OFFSET 2.538986 0.000000 0.000000
										CHANNELS 3 Xrotation Yrotation Zrotation
										JOINT newVegas:LeftHandPinky3
										{
											OFFSET 2.593102 0.000000 0.000000
											CHANNELS 3 Xrotation Yrotation Zrotation
											End Site
											{
												OFFSET -0.150902 2.584198 0.152708
											}
										}
									}
								}
							}
							JOINT newVegas:Left_Sleeve
							{
								OFFSET 0.267448 -0.649796 0.577675
								CHANNELS 3 Xrotation Yrotation Zrotation
								End Site
								{
									OFFSET 0.000000 15.991241 0.000000
								}
							}
							JOINT newVegas:Left_CapeC
							{
								OFFSET 15.715958 -8.608795 -6.935905
								CHANNELS 3 Xrotation Yrotation Zrotation
								JOINT newVegas:Left_CapeC1
								{
									OFFSET 0.000000 -8.688499 0.000000
									CHANNELS 3 Xrotation Yrotation Zrotation
									End Site
									{
										OFFSET 0.000000 8.688499 0.000000
									}
								}
							}
						}
						JOINT newVegas:Left_CapeB
						{
							OFFSET 26.118385 -8.608795 -7.079235
							CHANNELS 3 Xrotation Yrotation Zrotation
							JOINT newVegas:Left_CapeB1
							{
								OFFSET 0.000000 -8.688499 0.000000
								CHANNELS 3 Xrotation Yrotation Zrotation
								End Site
								{
									OFFSET 0.000000 8.688499 0.000000
								}
							}
						}
						JOINT newVegas:Left_CapeA
						{
							OFFSET 5.115639 -8.608795 -10.395809
							CHANNELS 3 Xrotation Yrotation Zrotation
							JOINT newVegas:Left_CapeA1
							{
								OFFSET 0.000000 -8.688499 0.000000
								CHANNELS 3 Xrotation Yrotation Zrotation
								End Site
								{
									OFFSET 0.000000 8.688499 0.000000
								}
							}
						}
					}
				}
				JOINT newVegas:RightShoulder
				{
					OFFSET -15.263000 10.923401 -0.547700
					CHANNELS 3 Xrotation Yrotation Zrotation
					JOINT newVegas:RightArm
					{
						OFFSET -25.438599 -2.830597 -13.032500
						CHANNELS 3 Xrotation Yrotation Zrotation
						JOINT newVegas:RightForeArm
						{
							OFFSET -29.960503 0.000000 0.000000
							CHANNELS 3 Xrotation Yrotation Zrotation
							JOINT newVegas:RightHand
							{
								OFFSET -27.849251 0.000000 0.000000
								CHANNELS 3 Xrotation Yrotation Zrotation
								JOINT newVegas:RightHandThumb1
								{
									OFFSET -4.487587 -3.305161 6.305391
									CHANNELS 3 Xrotation Yrotation Zrotation
									JOINT newVegas:RightHandThumb2
									{
										OFFSET -5.480453 -3.164139 3.164143
										CHANNELS 3 Xrotation Yrotation Zrotation
										JOINT newVegas:RightHandThumb3
										{
											OFFSET -5.159721 -2.978973 2.978967
											CHANNELS 3 Xrotation Yrotation Zrotation
											End Site
											{
												OFFSET -2.494507 5.926697 1.738678
											}
										}
									}
								}
								JOINT newVegas:RightHandIndex1
								{
									OFFSET -18.578728 -0.527832 5.208049
									CHANNELS 3 Xrotation Yrotation Zrotation
									JOINT newVegas:RightHandIndex2
									{
										OFFSET -3.192009 0.000000 0.000000
										CHANNELS 3 Xrotation Yrotation Zrotation
										JOINT newVegas:RightHandIndex3
										{
											OFFSET -3.835129 0.000000 0.000000
											CHANNELS 3 Xrotation Yrotation Zrotation
											End Site
											{
												OFFSET 0.034599 3.816971 0.371180
											}
										}
									}
								}
								JOINT newVegas:RightHandMiddle1
								{
									OFFSET -18.476105 0.000000 0.000000
									CHANNELS 3 Xrotation Yrotation Zrotation
									JOINT newVegas:RightHandMiddle2
									{
										OFFSET -3.324875 0.000000 0.000000
										CHANNELS 3 Xrotation Yrotation Zrotation
										JOINT newVegas:RightHandMiddle3
										{
											OFFSET -4.596550 0.000000 0.000000
											CHANNELS 3 Xrotation Yrotation Zrotation
											End Site
											{
												OFFSET -0.057701 4.578827 0.399218
											}
										}
									}
								}
								JOINT newVegas:RightHandRing1
								{
									OFFSET -17.732719 0.121887 -4.201567
									CHANNELS 3 Xrotation Yrotation Zrotation
									JOINT newVegas:RightHandRing2
									{
										OFFSET -2.733170 0.000000 0.000000
										CHANNELS 3 Xrotation Yrotation Zrotation
										JOINT newVegas:RightHandRing3
										{
											OFFSET -3.178268 0.000000 0.000000
											CHANNELS 3 Xrotation Yrotation Zrotation
											End Site
											{
												OFFSET -0.119102 3.170624 0.185394
											}
										}
									}
								}
								JOINT newVegas:RightHandPinky1
								{
									OFFSET -15.989624 -0.606689 -7.535461
									CHANNELS 3 Xrotation Yrotation Zrotation
									JOINT newVegas:RightHandPinky2
									{
										OFFSET -2.538986 0.000000 0.000000
										CHANNELS 3 Xrotation Yrotation Zrotation
										JOINT newVegas:RightHandPinky3
										{
											OFFSET -2.593102 0.000000 0.000000
											CHANNELS 3 Xrotation Yrotation Zrotation
											End Site
											{
												OFFSET 0.150902 2.584198 0.152708
											}
										}
									}
								}
							}
							JOINT newVegas:Right_CapeC
							{
								OFFSET -15.715958 -8.608795 -6.935905
								CHANNELS 3 Xrotation Yrotation Zrotation
								JOINT newVegas:Right_CapeC1
								{
									OFFSET 0.000000 -8.688499 0.000000
									CHANNELS 3 Xrotation Yrotation Zrotation
									End Site
									{
										OFFSET 0.000000 8.688499 0.000000
									}
								}
							}
							JOINT newVegas:Right_Sleeve
							{
								OFFSET -0.267448 -0.649994 0.577675
								CHANNELS 3 Xrotation Yrotation Zrotation
								End Site
								{
									OFFSET 0.000000 15.991302 0.000000
								}
							}
						}
						JOINT newVegas:Right_CapeA
						{
							OFFSET -5.115540 -8.608795 -10.395824
							CHANNELS 3 Xrotation Yrotation Zrotation
							JOINT newVegas:Right_CapeA1
							{
								OFFSET 0.000000 -8.688499 0.000000
								CHANNELS 3 Xrotation Yrotation Zrotation
								End Site
								{
									OFFSET 0.000000 8.688499 0.000000
								}
							}
						}
						JOINT newVegas:Right_CapeB
						{
							OFFSET -26.118187 -8.608795 -7.079266
							CHANNELS 3 Xrotation Yrotation Zrotation
							JOINT newVegas:Right_CapeB1
							{
								OFFSET 0.000000 -8.688499 0.000000
								CHANNELS 3 Xrotation Yrotation Zrotation
								End Site
								{
									OFFSET 0.000000 8.688499 0.000000
								}
							}
						}
					}
				}
				JOINT newVegas:Left_Collar
				{
					OFFSET 18.625099 8.655502 8.828100
					CHANNELS 3 Xrotation Yrotation Zrotation
					JOINT newVegas:Left_Collar1
					{
						OFFSET 14.783401 10.540405 -1.259500
						CHANNELS 3 Xrotation Yrotation Zrotation
						End Site
						{
							OFFSET 0.000000 18.199875 0.000000
						}
					}
				}
				JOINT newVegas:Collar_Back
				{
					OFFSET 0.000000 15.630707 -20.132601
					CHANNELS 3 Xrotation Yrotation Zrotation
					End Site
					{
						OFFSET 0.000000 22.523010 0.000000
					}
				}
				JOINT newVegas:Left_Peck
				{
					OFFSET 17.239599 -5.132599 25.482599
					CHANNELS 3 Xrotation Yrotation Zrotation
					End Site
					{
						OFFSET 0.000000 22.523010 0.000000
					}
				}
				JOINT newVegas:Right_Peck
				{
					OFFSET -17.239599 -5.132202 25.482599
					CHANNELS 3 Xrotation Yrotation Zrotation
					End Site
					{
						OFFSET 0.000000 22.523010 0.000000
					}
				}
				JOINT newVegas:Right_Collar
				{
					OFFSET -18.625099 8.655792 8.828100
					CHANNELS 3 Xrotation Yrotation Zrotation
					JOINT newVegas:Right_Collar1
					{
						OFFSET -14.783401 10.539993 -1.259500
						CHANNELS 3 Xrotation Yrotation Zrotation
						End Site
						{
							OFFSET 0.000000 18.199631 0.000000
						}
					}
				}
			}
		}
		JOINT newVegas:Belly
		{
			OFFSET 0.000000 -6.540398 9.014299
			CHANNELS 3 Xrotation Yrotation Zrotation
			End Site
			{
				OFFSET 0.000000 11.566666 0.000000
			}
		}
	}
	JOINT newVegas:ElvisFacialAnim_Joint
	{
		OFFSET 1.000000 -95.330101 -8.825800
		CHANNELS 3 Xrotation Yrotation Zrotation
		End Site
		{
			OFFSET 0.000000 35.315800 0.000000
		}
	}
}
MOTION
Frames: 4
Frame Time: 0.016667
-1.701215 93.711182 2.385731 2.912646 -28.993292 1.190029 -0.000000 0.000002 0.000000 -19.101864 17.302001 13.857274 23.893342 12.123083 -1.504226 -6.536314 -3.224737 -8.273301 0.000000 -0.000000 -0.000000 0.000000 0.000001 -0.000000 -12.321326 -0.374935 -11.129922 16.871301 9.899841 0.865162 -8.231156 -1.387057 8.929080 0.000000 0.000001 -0.000000 0.000001 -0.000001 -0.000001 7.835981 -0.360002 -2.682270 1.099251 -0.880569 2.383463 1.108681 -0.590438 2.446367 -0.922893 3.567107 -1.380662 -0.922907 3.567105 -1.380663 0.000000 -0.000001 -0.000000 -0.922967 3.567105 -1.380660 -0.922825 3.567103 -1.380668 0.000000 -0.000004 0.000000 0.000000 -0.000001 -0.000000 -0.057388 -8.759437 -0.061007 -55.250828 0.329468 -41.449358 11.584353 -65.827294 13.005487 -50.191030 12.352929 4.610807 17.551617 -5.699196 -12.932292 10.850425 26.127721 8.644851 0.000002 0.000001 -0.000003 13.980915 1.201560 -55.004377 0.370820 1.161705 -65.441887 -0.000001 -0.000003 -0.000004 7.504716 1.174480 -63.778517 1.807820 1.475659 -64.567937 0.000001 0.000000 0.000001 8.574317 2.179115 -75.148992 -0.207664 1.009275 -57.855056 -0.000000 -0.000002 -0.000001 10.030091 13.637072 -84.750244 0.877086 0.062283 -64.595531 -0.000001 0.000000 -0.000000 -0.000000 0.000002 0.000000 -0.000000 0.000002 0.000000 -0.000001 0.000002 0.000001 -0.000002 -0.000003 -0.000001 -0.000002 -0.000003 -0.000001 -0.000002 -0.000003 -0.000001 -0.000003 -0.000003 -0.000002 4.849302 7.760144 5.560459 -0.933456 -2.176910 61.845642 11.299284 18.943572 -3.987595 -0.459218 6.620095 5.830224 15.788389 -2.734507 -17.205788 -2.198360 -31.113550 7.361260 0.000002 -0.000002 -0.000001 2.382177 -3.656540 8.488173 -2.150637 -2.471228 18.673295 -0.000000 -0.000000 -0.000001 -1.979705 -5.703088 13.662272 0.280396 -5.098933 26.988050 -0.000001 -0.000000 -0.000001 -3.257605 -8.560608 11.770084 4.036125 -4.060199 33.262950 -0.000001 0.000001 0.000000 -6.474161 -11.347990 23.260728 10.715041 -2.557660 34.822606 0.000000 -0.000000 0.000001 0.000001 -0.000000 0.000002 -0.000000 -0.000000 0.000002 0.000001 -0.000000 0.000004 0.000000 0.000000 0.000001 0.000001 0.000000 0.000001 0.000000 0.000000 0.000001 0.000001 -0.000000 0.000001 0.000000 0.000001 0.000000 0.000000 0.000001 0.000000 0.000000 0.000001 0.000000 0.000000 0.000001 0.000000 0.000000 0.000001 0.000000 0.000000 0.000001 0.000000 0.000000 0.000001 0.000000 0.000001 0.000002 -0.000000 -0.000000 0.000002 0.000000 
-1.807050 93.442116 2.620097 3.089464 -27.951600 1.311001 -0.000000 0.000002 0.000000 -20.104585 16.679597 13.980158 25.281238 11.295125 -1.696048 -7.121712 -3.026771 -8.175008 -0.000000 -0.000000 -0.000000 -0.000000 0.000000 0.000000 -12.796869 -0.286936 -11.186801 18.947450 9.437399 0.808850 -9.793829 -1.906664 8.751751 0.000000 0.000002 -0.000000 -0.000001 -0.000003 -0.000001 7.585933 -0.120981 -2.955340 1.179881 -0.587865 2.428844 1.179493 -0.331361 2.447601 -1.016271 3.460489 -1.349995 -1.016278 3.460480 -1.349990 0.000001 0.000000 0.000000 -1.016273 3.460479 -1.349992 -1.016202 3.460499 -1.349998 0.000000 -0.000001 0.000000 0.000001 0.000000 0.000000 -0.156524 -7.613165 -0.517560 -54.992862 2.359937 -39.858860 14.183474 -68.506538 15.203462 -50.021095 11.836299 3.695131 17.551621 -5.699201 -12.932293 10.850429 26.127712 8.644847 0.000001 0.000001 -0.000006 13.980917 1.201560 -55.004381 0.370822 1.161706 -65.441887 -0.000002 -0.000001 0.000004 7.504716 1.174481 -63.778517 1.807824 1.475658 -64.567937 0.000000 0.000001 0.000001 8.574317 2.179113 -75.148992 -0.207667 1.009276 -57.855063 0.000001 0.000001 -0.000000 10.030094 13.637069 -84.750244 0.877087 0.062284 -64.595531 -0.000000 0.000002 -0.000000 -0.000003 -0.000002 -0.000001 -0.000003 -0.000002 -0.000001 -0.000004 -0.000002 -0.000001 -0.000001 0.000000 -0.000000 -0.000001 -0.000001 -0.000001 -0.000001 0.000000 -0.000000 -0.000001 -0.000002 -0.000001 4.812134 8.119673 5.688570 -0.408744 -2.451836 61.988509 12.244017 18.822500 -4.559258 -0.536302 7.009250 5.751532 15.835312 -2.735885 -17.119548 -2.264968 -31.017665 7.352477 -0.000000 -0.000001 0.000001 2.381963 -3.658124 8.566151 -2.150600 -2.472777 18.751262 0.000000 -0.000000 -0.000001 -1.979302 -5.704399 13.740274 0.282756 -5.099358 27.066146 0.000000 0.000000 -0.000002 -3.258056 -8.562266 11.847958 4.035935 -4.062099 33.341118 -0.000002 0.000000 0.000005 -6.485090 -11.390095 23.332691 10.716258 -2.558926 34.900911 0.000001 0.000002 0.000001 0.000000 -0.000000 0.000002 0.000000 -0.000001 0.000002 0.000000 -0.000000 0.000002 0.000001 0.000002 -0.000001 0.000001 0.000002 -0.000001 0.000001 0.000002 -0.000001 0.000001 0.000002 -0.000001 0.000001 -0.000000 -0.000000 0.000001 -0.000000 -0.000000 0.000001 -0.000000 -0.000000 0.000001 -0.000000 -0.000000 0.000001 -0.000000 -0.000000 0.000001 -0.000000 -0.000000 0.000001 -0.000000 -0.000000 -0.000000 0.000004 -0.000000 -0.000000 0.000002 0.000000 
-1.893411 93.176643 2.877535 3.262192 -26.745629 1.387544 0.000000 -0.000001 0.000000 -21.171192 16.057985 14.090435 26.638677 10.292211 -1.864330 -7.666097 -2.827232 -8.003508 0.000000 0.000000 -0.000000 -0.000000 -0.000000 -0.000000 -13.016784 -0.289026 -11.195876 20.681208 9.315087 0.781554 -11.277383 -2.892092 8.498224 -0.000000 -0.000002 0.000000 0.000001 0.000001 -0.000001 7.263284 0.176794 -3.128077 1.305098 -0.239086 2.460831 1.292177 -0.018794 2.426597 -1.123928 3.314639 -1.308722 -1.123929 3.314636 -1.308719 0.000001 0.000000 -0.000000 -1.123923 3.314630 -1.308719 -1.123862 3.314639 -1.308725 -0.000001 -0.000001 0.000000 0.000001 0.000000 0.000000 -0.257676 -6.543712 -1.038125 -54.949610 4.638161 -38.362673 19.162470 -71.200856 19.813614 -49.825373 10.829550 2.949348 17.551617 -5.699199 -12.932293 10.850421 26.127714 8.644852 -0.000005 0.000001 -0.000003 13.980917 1.201561 -55.004384 0.370821 1.161704 -65.441887 -0.000002 -0.000000 0.000000 7.504715 1.174482 -63.778517 1.807825 1.475658 -64.567937 -0.000000 -0.000001 0.000000 8.574318 2.179117 -75.148992 -0.207668 1.009280 -57.855049 0.000001 0.000001 -0.000004 10.030092 13.637075 -84.750251 0.877086 0.062287 -64.595531 0.000000 0.000000 -0.000001 0.000001 0.000001 -0.000001 0.000001 0.000001 -0.000001 -0.000000 0.000002 -0.000001 0.000003 -0.000002 -0.000002 0.000003 -0.000003 -0.000004 0.000003 -0.000002 -0.000002 0.000001 -0.000003 -0.000002 4.776427 8.473872 5.863059 0.334831 -2.740972 62.151183 13.457521 18.694458 -5.471673 -0.738285 7.226689 5.672239 15.960349 -2.740598 -16.876643 -2.449946 -30.750772 7.328895 0.000000 -0.000002 -0.000001 2.381014 -3.658319 8.783358 -2.150651 -2.472925 18.968463 0.000000 0.000000 -0.000001 -1.978065 -5.708025 13.957455 0.282842 -5.100864 27.283365 0.000000 0.000001 -0.000001 -3.259163 -8.562337 12.064985 4.035371 -4.062284 33.558342 0.000001 0.000001 -0.000002 -6.514884 -11.507484 23.533051 10.719499 -2.558897 35.118210 -0.000001 0.000001 0.000001 -0.000000 -0.000000 0.000001 -0.000000 -0.000000 0.000001 -0.000000 0.000000 0.000001 0.000001 0.000001 -0.000001 0.000001 0.000000 -0.000001 0.000001 0.000001 -0.000001 0.000001 -0.000000 -0.000001 0.000001 0.000002 -0.000000 0.000001 0.000002 -0.000000 0.000001 0.000002 -0.000000 0.000001 0.000002 -0.000000 0.000001 0.000002 -0.000000 0.000001 0.000002 -0.000000 0.000001 0.000002 -0.000000 0.000001 0.000001 -0.000000 0.000000 -0.000001 0.000000 
-1.960334 92.915558 3.155231 3.425646 -25.378652 1.423767 -0.000000 0.000001 -0.000000 -22.285750 15.467423 14.235922 28.007087 10.587967 -1.914797 -8.183356 -4.110473 -8.116487 0.000000 0.000000 0.000000 0.000000 -0.000000 -0.000000 -13.009793 -0.371288 -11.179547 22.135777 8.889355 0.737092 -12.694918 -3.714898 8.339722 0.000000 0.000000 -0.000000 0.000001 -0.000000 0.000000 6.887899 0.518794 -3.213194 1.460489 0.152812 2.478274 1.433639 0.334555 2.384510 -1.239427 3.134929 -1.257176 -1.239432 3.134924 -1.257174 0.000001 0.000001 -0.000000 -1.239430 3.134936 -1.257177 -1.239430 3.134938 -1.257177 0.000000 0.000000 -0.000000 0.000001 0.000001 -0.000000 -0.348973 -5.538380 -1.589103 -55.141569 7.041874 -36.915455 26.186530 -73.767061 26.509842 -49.617882 9.602814 2.265827 17.551619 -5.699200 -12.932293 10.850430 26.127717 8.644853 -0.000000 0.000000 -0.000003 13.980916 1.201560 -55.004381 0.370822 1.161701 -65.441887 -0.000003 -0.000003 0.000002 7.504715 1.174482 -63.778517 1.807821 1.475659 -64.567930 -0.000002 -0.000002 -0.000002 8.574319 2.179115 -75.148992 -0.207664 1.009274 -57.855056 -0.000000 0.000001 0.000001 10.030094 13.637074 -84.750251 0.877083 0.062288 -64.595531 0.000001 -0.000002 -0.000003 -0.000001 0.000003 -0.000001 -0.000001 0.000003 -0.000001 -0.000002 0.000003 -0.000001 -0.000000 0.000002 -0.000000 -0.000000 0.000001 -0.000002 -0.000000 0.000002 -0.000000 -0.000000 0.000000 -0.000001 4.736008 8.868327 6.075512 1.246716 -3.107694 62.321248 14.852970 18.537193 -6.632865 -1.106522 7.329463 5.646198 16.151265 -2.746685 -16.506593 -2.730703 -30.343829 7.294849 -0.000000 -0.000000 -0.000000 2.379598 -3.658628 9.114415 -2.150757 -2.473105 19.299572 -0.000001 0.000001 0.000001 -1.976183 -5.708182 14.288692 0.283036 -5.103078 27.614453 -0.000000 0.000000 -0.000003 -3.260861 -8.562462 12.395847 4.034554 -4.062539 33.889380 -0.000000 -0.000001 -0.000001 -6.558735 -11.686811 23.838359 10.719590 -2.559017 35.449290 0.000002 0.000003 0.000000 0.000000 -0.000000 0.000001 -0.000000 -0.000000 0.000001 -0.000000 0.000000 0.000001 -0.000001 0.000002 0.000000 -0.000001 0.000002 0.000001 -0.000001 0.000002 0.000000 -0.000001 0.000002 0.000001 -0.000000 -0.000000 -0.000000 -0.000000 -0.000000 -0.000000 -0.000000 -0.000000 -0.000000 -0.000000 -0.000000 -0.000000 -0.000000 -0.000000 -0.000000 -0.000000 -0.000000 -0.000000 -0.000000 -0.000000 -0.000000 0.000000 0.000002 -0.000000 -0.000000 0.000001 -0.000000 
